name Walk1.mot
datacolumns 19
datarows 12
range 3.57400000 3.58500000
endheader

                time	   L_ground_force_vx	   L_ground_force_vy	   L_ground_force_vz	   L_ground_force_px	   L_ground_force_py	   L_ground_force_pz	   R_ground_force_vx	   R_ground_force_vy	   R_ground_force_vz	   R_ground_force_px	   R_ground_force_py	   R_ground_force_pz	   L_ground_torque_x	   L_ground_torque_y	   L_ground_torque_z	   R_ground_torque_x	   R_ground_torque_y	   R_ground_torque_z	
          3.57400000	         46.85612261	        653.40289629	         38.64176777	         -0.26851479	          0.00000000	         -0.04961764	         -0.01118545	          0.20305221	          0.01276653	          0.00023684	          0.00000000	          0.00006286	          0.00000000	          0.30071171	          0.00000000	          0.00000000	          0.00066621	          0.00000000	
          3.57500000	         47.22165330	        654.80444420	         38.75721869	         -0.26815269	          0.00000000	         -0.04967986	         -0.01202917	          0.21458352	          0.01355987	          0.00024583	          0.00000000	          0.00006526	          0.00000000	          0.30984783	          0.00000000	          0.00000000	          0.00073803	          0.00000000	
          3.57600000	         47.58765379	        656.21905494	         38.87468633	         -0.26778637	          0.00000000	         -0.04974330	         -0.01290161	          0.22630017	          0.01437094	          0.00025463	          0.00000000	          0.00006762	          0.00000000	          0.31936189	          0.00000000	          0.00000000	          0.00081348	          0.00000000	
          3.57700000	         47.95401542	        657.64609591	         38.99423218	         -0.26741578	          0.00000000	         -0.04980800	         -0.01380184	          0.23817099	          0.01519802	          0.00026321	          0.00000000	          0.00006992	          0.00000000	          0.32926792	          0.00000000	          0.00000000	          0.00089258	          0.00000000	
          3.57800000	         48.32062479	        659.08490663	         39.11591247	         -0.26704084	          0.00000000	         -0.04987399	         -0.01472872	          0.25016128	          0.01603919	          0.00027149	          0.00000000	          0.00007214	          0.00000000	          0.33957920	          0.00000000	          0.00000000	          0.00097535	          0.00000000	
          3.57900000	         48.68736471	        660.53480238	         39.23977849	         -0.26666151	          0.00000000	         -0.04994128	         -0.01568091	          0.26223262	          0.01689229	          0.00027942	          0.00000000	          0.00007428	          0.00000000	          0.35030821	          0.00000000	          0.00000000	          0.00106178	          0.00000000	
          3.58000000	         49.05411465	        661.99507814	         39.36587696	         -0.26627773	          0.00000000	         -0.05000989	         -0.01665681	          0.27434270	          0.01775490	          0.00028694	          0.00000000	          0.00007630	          0.00000000	          0.36146677	          0.00000000	          0.00000000	          0.00115186	          0.00000000	
          3.58100000	         49.42075071	        663.46501205	         39.49425027	         -0.26588943	          0.00000000	         -0.05007980	         -0.01765461	          0.28644509	          0.01862434	          0.00029397	          0.00000000	          0.00007819	          0.00000000	          0.37306608	          0.00000000	          0.00000000	          0.00124555	          0.00000000	
          3.58200000	         49.78714524	        664.94386787	         39.62493631	         -0.26549656	          0.00000000	         -0.05015103	         -0.01867222	          0.29848911	          0.01949766	          0.00030044	          0.00000000	          0.00007994	          0.00000000	          0.38511680	          0.00000000	          0.00000000	          0.00134280	          0.00000000	
          3.58300000	         50.15316646	        666.43089657	         39.75796804	         -0.26509907	          0.00000000	         -0.05022356	         -0.01970728	          0.31041959	          0.02037160	          0.00030626	          0.00000000	          0.00008153	          0.00000000	          0.39762893	          0.00000000	          0.00000000	          0.00144354	          0.00000000	
          3.58400000	         50.51867827	        667.92533687	         39.89337265	         -0.26469691	          0.00000000	         -0.05029737	         -0.02075713	          0.32217670	          0.02124263	          0.00031137	          0.00000000	          0.00008292	          0.00000000	          0.41061162	          0.00000000	          0.00000000	          0.00154769	          0.00000000	
          3.58500000	         50.88354037	        669.42641563	         40.03117066	         -0.26429001	          0.00000000	         -0.05037246	         -0.02181881	          0.33369578	          0.02210686	          0.00031566	          0.00000000	          0.00008410	          0.00000000	          0.42407294	          0.00000000	          0.00000000	          0.00165512	          0.00000000	
